<?xml version="1.0" standalone="no"?>
<!DOCTYPE svg PUBLIC "-//W3C//DTD SVG 20010904//EN"
 "http://www.w3.org/TR/2001/REC-SVG-20010904/DTD/svg10.dtd">
<svg version="1.0" xmlns="http://www.w3.org/2000/svg"
 width="512.000000pt" height="512.000000pt" viewBox="50 50 400 400"
 preserveAspectRatio="xMidYMid meet">
<metadata>
Created by potrace 1.16, written by Peter Selinger 2001-2019
</metadata>
<g transform="translate(0.000000,512.000000) scale(0.100000,-0.100000)"
fill="#000000" stroke="none">
<path d="M525 4280 c-22 -25 -13 -39 11 -16 15 15 18 15 40 1 21 -13 23 -13
18 0 -6 13 -34 35 -47 35 -2 0 -12 -9 -22 -20z"/>
<path d="M520 3926 l0 -305 -32 -4 -33 -4 32 -1 c28 -2 32 -6 36 -34 2 -18 5
121 5 310 1 188 0 342 -3 342 -3 0 -5 -137 -5 -304z"/>
<path d="M597 4223 c-8 -8 -7 -349 2 -608 6 -163 8 -134 9 213 1 221 1 402 -1
402 -2 0 -7 -3 -10 -7z"/>
<path d="M262 4144 c-15 -10 -22 -25 -22 -49 0 -59 54 -91 99 -58 38 29 40 74
5 102 -32 25 -52 26 -82 5z"/>
<path d="M815 4125 c-52 -19 -111 -82 -125 -135 -8 -29 -11 -149 -9 -380 l4
-337 -49 -72 c-27 -39 -46 -74 -43 -77 3 -3 28 27 56 67 l51 72 0 355 c0 342
1 357 21 400 13 26 38 54 62 70 37 25 50 27 164 30 68 2 123 8 123 13 0 15
-210 10 -255 -6z"/>
<path d="M1960 4120 c0 -6 117 -10 330 -10 213 0 330 4 330 10 0 6 -117 10
-330 10 -213 0 -330 -4 -330 -10z"/>
<path d="M2640 4120 c0 -5 20 -10 45 -10 25 0 45 5 45 10 0 6 -20 10 -45 10
-25 0 -45 -4 -45 -10z"/>
<path d="M1844 4056 c-19 -19 -34 -40 -34 -47 0 -8 10 -1 23 14 12 15 36 36
52 47 23 15 26 20 12 20 -11 0 -34 -15 -53 -34z"/>
<path d="M4398 4065 c-10 -22 -9 -29 10 -47 18 -19 25 -20 47 -10 16 8 25 20
25 35 0 50 -62 66 -82 22z m62 -15 c0 -24 -26 -38 -42 -22 -16 16 -2 42 22 42
13 0 20 -7 20 -20z"/>
<path d="M1033 4073 c15 -2 37 -2 50 0 12 2 0 4 -28 4 -27 0 -38 -2 -22 -4z"/>
<path d="M3470 4040 c0 -6 147 -10 391 -10 261 0 388 3 384 10 -8 14 -775 13
-775 0z"/>
<path d="M855 4021 c-40 -24 -81 -70 -93 -101 -15 -40 -25 -130 -14 -130 5 0
12 22 14 49 6 65 36 120 85 154 35 25 52 29 149 36 l109 8 -110 2 c-92 1 -115
-2 -140 -18z"/>
<path d="M3315 4016 c-102 -44 -137 -183 -64 -256 27 -26 38 -30 85 -30 54 0
54 0 122 70 38 38 85 77 105 85 30 12 93 15 356 15 l320 0 37 -32 c29 -25 35
-28 26 -11 -7 12 -24 31 -38 42 -26 20 -38 21 -348 21 -376 0 -371 1 -473
-106 -58 -60 -64 -64 -106 -64 -111 0 -143 139 -51 220 20 17 49 33 65 37 31
6 40 23 12 23 -10 -1 -32 -7 -48 -14z"/>
<path d="M4773 4000 c-35 -21 -53 -48 -53 -79 0 -16 -6 -21 -27 -21 -85 0
-192 -152 -154 -218 9 -14 10 -13 11 8 1 76 54 160 117 186 54 23 56 20 50
-47 -6 -69 4 -106 30 -116 10 -4 21 -11 25 -17 12 -18 38 15 38 49 0 34 -25
65 -53 65 -14 0 -17 11 -17 66 0 59 3 68 29 95 42 41 77 38 140 -11 59 -47 74
-72 69 -111 -3 -20 0 -29 9 -29 17 0 17 53 -1 88 -14 27 -72 79 -113 100 -31
17 -64 15 -100 -8z m7 -225 c14 -17 10 -47 -7 -52 -15 -5 -47 42 -38 57 9 14
31 12 45 -5z"/>
<path d="M1910 3990 c-20 -20 -20 -33 -20 -812 0 -436 -3 -1019 -7 -1295 l-6
-503 -23 0 c-26 0 -34 -17 -23 -48 l8 -22 778 2 778 3 3 29 c2 16 -1 33 -7 39
-6 6 -11 41 -11 78 0 67 1 69 50 125 53 60 96 157 130 289 33 129 60 316 60
416 l0 99 30 0 30 0 0 -180 0 -180 96 0 c93 0 97 -1 136 -32 80 -63 187 -44
230 42 10 18 24 38 33 42 20 12 19 84 -1 118 -14 24 -15 24 -9 -17 10 -64 1
-82 -40 -80 -32 2 -35 5 -35 33 0 17 -7 37 -16 45 -23 19 -78 14 -120 -10 -45
-27 -47 -27 -30 8 18 34 57 61 88 61 37 0 88 -37 104 -75 17 -41 34 -46 34
-10 0 16 -15 41 -38 66 -31 34 -46 42 -84 46 -58 7 -108 -21 -132 -72 -17 -35
-18 -35 -81 -35 -37 0 -65 -4 -65 -10 0 -6 32 -10 76 -10 47 0 73 -4 69 -10
-3 -5 -35 -10 -71 -10 -36 0 -64 -4 -64 -10 0 -6 29 -10 68 -10 58 0 73 4 112
30 30 20 58 30 83 30 35 0 37 -2 37 -30 0 -21 -5 -30 -17 -31 -10 -1 -69 -4
-132 -8 -84 -4 -116 -10 -119 -20 -4 -11 20 -13 131 -9 130 3 135 3 120 -14
-9 -10 -22 -18 -30 -18 -7 0 -13 -5 -13 -11 0 -24 55 -3 75 28 24 38 50 45 40
11 -11 -37 -52 -68 -91 -68 -38 0 -83 19 -103 44 -11 13 -36 16 -122 16 l-109
0 0 170 0 170 150 0 150 0 0 243 0 243 -29 46 c-50 79 -128 118 -235 118 -106
-1 -192 -55 -244 -155 -53 -103 -26 -248 55 -300 18 -11 32 -23 33 -27 1 -19
-39 -4 -119 44 -118 71 -189 126 -207 159 -8 16 -32 43 -54 60 -38 31 -40 35
-40 88 0 95 9 125 41 144 45 26 58 70 63 216 2 71 9 138 15 149 6 12 11 40 11
63 0 37 -6 48 -45 85 -44 42 -118 74 -172 74 l-23 0 0 159 c0 145 -2 161 -21
185 l-20 26 -535 0 c-521 0 -534 0 -554 -20z m1071 -20 c18 -10 19 -23 19
-180 l0 -170 -27 -7 c-16 -5 -65 -8 -109 -8 -64 0 -86 4 -101 18 -24 21 -33
13 -33 -26 0 -30 0 -30 -21 -11 -17 16 -22 16 -29 4 -24 -38 -3 -148 36 -191
10 -11 14 -31 12 -56 l-3 -38 -352 -3 c-324 -2 -377 -6 -343 -27 6 -3 153 -6
328 -6 291 1 364 -4 333 -23 -17 -11 -13 -71 7 -97 14 -18 21 -49 26 -118 4
-64 13 -109 27 -138 22 -45 72 -83 110 -83 22 0 20 -3 -12 -23 -20 -12 -59
-39 -85 -59 -27 -21 -89 -61 -137 -90 -82 -48 -147 -105 -147 -128 0 -6 -88
-10 -227 -10 -165 -1 -223 -4 -210 -11 12 -7 91 -10 223 -7 l204 3 0 -22 0
-23 -215 0 c-137 0 -215 -4 -215 -10 0 -6 77 -10 210 -10 180 0 210 -2 210
-15 0 -13 -31 -15 -216 -15 -141 0 -213 -3 -209 -10 4 -6 85 -10 211 -10 175
0 204 -2 204 -15 0 -13 -30 -15 -211 -15 -137 0 -208 -3 -204 -10 4 -6 85 -10
211 -10 160 0 205 -3 202 -12 -4 -10 -57 -14 -211 -16 -127 -1 -207 -6 -207
-12 0 -6 78 -10 206 -10 l205 0 -3 -22 c-3 -23 -4 -23 -200 -25 -109 -1 -199
-5 -200 -10 -2 -4 86 -9 195 -11 l197 -2 0 -25 0 -25 -195 0 c-123 0 -195 -4
-195 -10 0 -6 70 -10 190 -10 165 0 190 -2 190 -16 0 -8 -5 -12 -11 -9 -11 8
-373 -5 -365 -12 2 -3 86 -4 185 -3 158 1 181 -1 181 -15 0 -14 -28 -15 -237
-13 l-238 3 -3 944 c-1 689 1 947 9 957 9 12 103 14 516 14 328 0 511 -4 524
-10z m-242 -528 c22 -20 23 -22 4 -12 -23 11 -53 48 -53 65 0 5 6 1 12 -10 6
-11 23 -30 37 -43z m214 -31 c45 -17 101 -13 172 13 36 13 65 22 65 20 0 -2
-19 -13 -42 -25 -28 -15 -68 -24 -116 -27 -65 -4 -76 -2 -112 22 -21 14 -44
36 -51 48 -9 18 -5 17 22 -9 19 -17 47 -37 62 -42z m-37 -42 c60 -14 102 -18
134 -14 52 7 54 6 65 -43 5 -24 3 -32 -6 -30 -8 2 -15 -8 -17 -21 -3 -21 -7
-23 -44 -18 -22 3 -49 15 -59 26 -26 28 -64 26 -95 -4 -32 -32 -54 -32 -54 0
0 21 -5 25 -22 24 -51 -5 -58 0 -58 36 0 49 26 88 50 75 11 -6 58 -19 106 -31z
m211 -121 c-3 -8 -6 -5 -6 6 -1 11 2 17 5 13 3 -3 4 -12 1 -19z m-199 -8 c-10
-16 -10 -24 -1 -40 11 -16 10 -18 -2 -14 -15 6 -21 55 -8 67 15 15 22 6 11
-13z m-138 -35 c0 -13 -4 -26 -8 -29 -5 -3 -8 10 -8 29 1 37 16 37 16 0z m420
0 c16 -20 7 -91 -15 -115 -9 -10 -27 -21 -41 -24 -17 -5 -24 -13 -24 -32 0
-98 -102 -191 -219 -201 -108 -8 -150 46 -159 202 l-4 90 33 15 c19 8 38 25
44 38 13 29 21 28 55 -8 17 -18 38 -30 54 -30 28 0 66 31 66 55 0 23 79 20 96
-2 12 -17 14 -17 41 4 33 26 56 28 73 8z m635 -209 c60 -27 110 -81 124 -133
6 -21 11 -131 11 -245 l0 -208 -140 0 -140 0 0 39 c0 47 -29 87 -70 96 -16 4
-52 27 -80 52 -49 44 -80 109 -80 168 0 86 74 199 155 236 59 27 157 25 220
-5z m-740 -243 c-43 -37 -98 -56 -153 -51 -36 3 -37 4 -40 49 l-3 46 41 7 c53
8 108 36 140 71 l25 27 14 -58 14 -58 -38 -33z m19 -93 c-52 -90 -60 -99 -73
-85 -9 9 -20 32 -26 53 -10 36 -10 37 27 55 21 10 57 36 80 57 24 21 45 34 46
29 2 -5 -22 -54 -54 -109z m-240 78 c5 -21 3 -28 -9 -28 -10 0 -15 -10 -15
-32 0 -48 -10 -78 -26 -78 -28 0 -14 115 18 150 23 24 23 24 32 -12z m352 -99
c-8 -86 -13 -98 -45 -105 -43 -11 -43 -13 -1 -72 l40 -56 -143 -141 c-82 -80
-164 -171 -192 -212 -27 -40 -50 -71 -52 -69 -10 10 76 194 184 396 74 137
114 220 163 335 l22 50 15 -29 c12 -22 14 -46 9 -97z m-452 24 c-4 -21 -11
-44 -17 -51 -8 -10 -8 -16 0 -20 10 -7 34 -495 32 -652 l-1 -65 -15 35 c-19
44 -53 195 -89 392 l-27 152 47 43 c56 50 44 57 -20 11 -33 -23 -44 -38 -44
-58 0 -14 18 -123 40 -241 38 -204 67 -317 90 -344 6 -7 6 -32 0 -71 -13 -79
-13 -314 0 -314 6 0 10 34 10 83 1 242 19 312 118 462 47 71 163 195 183 195
21 0 3 -45 -22 -58 -49 -24 -62 -85 -30 -138 54 -88 181 -55 181 47 0 30 -6
50 -21 65 -20 21 -20 24 -5 46 22 31 20 65 -4 73 -11 3 -25 3 -31 -1 -27 -16
6 44 47 86 24 25 44 53 44 61 0 9 -13 35 -30 57 -16 23 -30 44 -30 46 0 2 13
9 29 14 27 9 30 16 36 69 12 102 4 100 122 20 140 -95 148 -107 147 -210 -2
-157 -85 -556 -140 -677 -29 -62 -51 -90 -126 -163 -50 -48 -88 -90 -86 -92 8
-8 161 110 205 158 57 61 79 109 113 240 51 198 73 342 74 479 1 131 10 148
22 37 11 -114 -44 -445 -101 -613 -14 -39 -40 -93 -60 -122 -37 -53 -145 -150
-249 -223 -51 -35 -66 -41 -112 -41 -51 0 -54 2 -69 34 -9 19 -25 42 -35 51
-18 17 -14 21 118 103 200 125 202 126 202 176 0 22 16 160 34 306 19 146 32
267 30 269 -2 2 -6 2 -9 -1 -12 -12 -46 -216 -67 -406 l-22 -203 -80 -53 c-45
-29 -133 -83 -196 -121 -63 -37 -125 -77 -137 -88 -20 -18 -27 -19 -62 -9 -56
17 -101 15 -146 -8 -43 -22 -65 -14 -65 25 0 12 18 130 39 261 46 277 58 394
42 394 -6 0 -11 -6 -11 -12 0 -21 -40 -271 -46 -290 -3 -10 -13 -18 -22 -18
-16 -1 -15 -2 1 -11 29 -17 19 -29 -25 -29 -32 0 -39 -3 -28 -10 8 -5 25 -10
38 -10 12 0 22 -6 22 -14 0 -17 -25 -157 -46 -253 l-15 -73 -83 0 -83 0 34
168 c18 92 43 223 54 292 11 69 24 134 29 145 15 29 69 298 62 309 -8 15 -18
-18 -43 -149 -12 -65 -24 -114 -26 -108 -7 19 37 254 52 282 8 14 23 60 34
101 33 127 39 134 142 204 52 36 98 65 102 65 4 1 5 -16 1 -36z m184 -5 c16
-16 15 -55 -1 -61 -22 -8 -67 4 -67 19 0 13 38 54 50 54 3 0 11 -5 18 -12z
m-99 -160 c-10 -46 -22 -101 -26 -123 l-7 -40 -7 45 c-4 25 -8 77 -8 117 -1
74 3 81 45 82 l22 1 -19 -82z m160 61 l25 -20 -48 -96 c-26 -52 -48 -94 -50
-92 -2 2 -6 50 -10 106 l-7 101 28 10 c37 14 35 14 62 -9z m-481 -26 c-6 -16
-21 -64 -34 -108 -25 -90 -32 -74 -9 23 13 54 39 112 51 112 2 0 -2 -12 -8
-27z m1112 -28 c13 -12 20 -31 20 -57 0 -37 -1 -38 -35 -38 -27 0 -35 4 -35
18 0 11 -14 38 -31 62 l-31 43 46 -5 c26 -3 56 -14 66 -23z m-486 -300 c-6
-16 -44 -21 -44 -7 0 14 12 22 31 22 12 0 16 -5 13 -15z m-6 -81 c37 -26 28
-98 -15 -115 -36 -13 -72 -1 -88 32 -19 36 -19 41 6 73 24 30 63 34 97 10z
m-770 -207 l3 -27 -155 0 c-97 0 -156 -4 -156 -10 0 -6 51 -10 134 -10 74 0
141 -3 150 -6 23 -9 20 -22 -6 -27 l-23 -4 23 -8 c40 -13 17 -30 -46 -33 -80
-4 -81 -22 -1 -22 52 0 60 -2 57 -17 -3 -16 -17 -18 -106 -21 -133 -4 -135
-22 -2 -22 55 0 100 -4 100 -8 0 -37 -62 -307 -72 -314 -7 -4 -96 -7 -198 -5
l-185 2 3 260 c2 142 8 267 13 277 9 16 30 18 222 21 116 1 219 2 227 2 9 0
16 -12 18 -28z m944 -519 c-5 -5 -42 -8 -82 -6 l-72 3 78 56 79 57 3 -51 c2
-27 -1 -54 -6 -59z m-376 10 c14 -27 13 -28 -8 -28 -12 0 -37 14 -55 32 l-33
32 22 12 c27 14 50 -1 74 -48z"/>
<path d="M2030 3930 c0 -5 14 -10 30 -10 17 0 30 5 30 10 0 6 -13 10 -30 10
-16 0 -30 -4 -30 -10z"/>
<path d="M2140 3930 c0 -5 23 -10 50 -10 28 0 50 5 50 10 0 6 -22 10 -50 10
-27 0 -50 -4 -50 -10z"/>
<path d="M2270 3930 c0 -5 18 -10 40 -10 22 0 40 5 40 10 0 6 -18 10 -40 10
-22 0 -40 -4 -40 -10z"/>
<path d="M2450 3931 c0 -7 29 -11 87 -11 47 0 84 2 82 5 -3 2 -42 7 -87 11
-58 5 -82 3 -82 -5z"/>
<path d="M2660 3931 c0 -6 54 -12 138 -13 l137 -3 3 -36 3 -35 -56 6 -55 6 0
-93 c0 -55 4 -93 10 -93 6 0 10 18 10 39 0 37 2 40 33 44 l32 4 -32 1 c-22 1
-33 7 -33 17 0 11 12 15 45 15 l46 0 -3 -72 -3 -73 -57 1 c-32 1 -58 -3 -58
-7 0 -5 32 -9 70 -9 l71 0 -3 153 -3 152 -147 3 c-94 2 -148 -1 -148 -7z m280
-117 c0 -12 -10 -14 -47 -12 -66 4 -70 28 -4 28 39 0 51 -4 51 -16z"/>
<path d="M2830 3887 c0 -9 12 -11 40 -9 22 2 40 8 40 13 0 5 -18 9 -40 9 -26
0 -40 -5 -40 -13z"/>
<path d="M2030 3780 c0 -6 105 -10 295 -10 190 0 295 4 295 10 0 6 -105 10
-295 10 -190 0 -295 -4 -295 -10z"/>
<path d="M2100 3730 c-55 -5 -24 -7 113 -8 119 -1 187 2 187 8 0 11 -173 11
-300 0z"/>
<path d="M2030 3600 c0 -6 98 -10 275 -10 177 0 275 4 275 10 0 6 -98 10 -275
10 -177 0 -275 -4 -275 -10z"/>
<path d="M2030 3510 c0 -6 29 -10 68 -9 46 0 61 3 47 9 -28 12 -115 12 -115 0z"/>
<path d="M2034 3399 c-3 -5 110 -9 280 -9 191 0 286 3 286 10 0 14 -557 12
-566 -1z"/>
<path d="M2030 3130 c0 -6 27 -10 60 -10 33 0 60 4 60 10 0 6 -27 10 -60 10
-33 0 -60 -4 -60 -10z"/>
<path d="M2370 2935 l0 -205 -170 0 c-107 0 -170 -4 -170 -10 0 -6 118 -10
335 -10 217 0 335 4 335 10 0 6 -58 10 -155 10 l-155 0 0 205 c0 130 -4 205
-10 205 -6 0 -10 -75 -10 -205z"/>
<path d="M2030 3060 c0 -6 59 -10 158 -10 105 0 152 4 142 10 -20 13 -300 13
-300 0z"/>
<path d="M2030 2980 c0 -6 37 -10 90 -10 53 0 90 4 90 10 0 6 -37 10 -90 10
-53 0 -90 -4 -90 -10z"/>
<path d="M2030 2920 c0 -6 38 -10 95 -10 57 0 95 4 95 10 0 6 -38 10 -95 10
-57 0 -95 -4 -95 -10z"/>
<path d="M2035 2850 c-4 -6 30 -10 94 -10 61 0 101 4 101 10 0 6 -38 10 -94
10 -53 0 -98 -4 -101 -10z"/>
<path d="M2030 2770 c0 -6 58 -10 155 -10 97 0 155 4 155 10 0 6 -58 10 -155
10 -97 0 -155 -4 -155 -10z"/>
<path d="M2030 2610 c0 -6 33 -10 80 -10 47 0 80 4 80 10 0 6 -33 10 -80 10
-47 0 -80 -4 -80 -10z"/>
<path d="M2040 2550 c0 -6 75 -10 205 -10 130 0 205 4 205 10 0 6 -75 10 -205
10 -130 0 -205 -4 -205 -10z"/>
<path d="M3156 3184 c-10 -26 -7 -44 8 -44 14 0 26 21 26 46 0 19 -26 18 -34
-2z"/>
<path d="M3615 2911 c-74 -46 -105 -116 -85 -192 15 -54 66 -107 110 -115 l35
-6 -44 23 c-65 35 -86 68 -86 139 0 88 49 144 141 159 l49 9 -45 1 c-28 1 -56
-6 -75 -18z"/>
<path d="M3872 2849 c19 -26 23 -43 23 -107 0 -68 -3 -82 -29 -119 -16 -24
-49 -56 -74 -73 -46 -31 -43 -41 6 -16 35 18 75 62 98 106 28 53 26 154 -4
203 -13 20 -28 37 -33 37 -5 0 1 -14 13 -31z"/>
<path d="M3737 2813 c-4 -3 -7 -21 -7 -40 0 -33 -1 -33 -45 -33 -25 0 -45 -4
-45 -10 0 -5 20 -10 45 -10 43 0 45 -1 45 -29 0 -17 5 -33 10 -36 6 -4 10 10
10 34 l0 41 50 0 c28 0 50 2 50 5 0 17 -33 66 -49 75 -22 11 -54 13 -64 3z
m67 -24 c25 -20 35 -49 17 -49 -5 0 -23 3 -40 6 -26 6 -31 11 -31 35 0 35 17
37 54 8z"/>
<path d="M2660 2050 c0 -67 4 -110 10 -110 6 0 10 43 10 110 0 67 -4 110 -10
110 -6 0 -10 -43 -10 -110z"/>
<path d="M1990 1720 c0 -5 25 -10 55 -10 30 0 55 5 55 10 0 6 -25 10 -55 10
-30 0 -55 -4 -55 -10z"/>
<path d="M1994 1607 c-2 -8 -4 -49 -2 -93 l3 -79 55 0 55 0 0 90 0 90 -53 3
c-37 2 -54 -1 -58 -11z m86 -82 l0 -65 -30 0 -30 0 0 65 0 65 30 0 30 0 0 -65z"/>
<path d="M2187 1614 c-4 -4 -7 -47 -7 -96 l0 -89 58 3 57 3 0 90 0 90 -50 3
c-28 2 -54 0 -58 -4z m83 -89 l0 -65 -30 0 -30 0 0 65 0 65 30 0 30 0 0 -65z"/>
<path d="M1800 3715 c0 -170 4 -265 10 -265 6 0 10 95 10 265 0 170 -4 265
-10 265 -6 0 -10 -95 -10 -265z"/>
<path d="M3543 3964 c-18 -9 -33 -20 -33 -25 0 -12 3 -11 36 6 24 12 86 15
359 15 l330 0 36 -24 c39 -27 99 -129 99 -169 0 -14 5 -29 10 -32 14 -8 13 44
-2 86 -17 51 -58 105 -103 133 l-39 26 -331 0 c-282 0 -335 -3 -362 -16z"/>
<path d="M1466 3830 c-7 -65 -10 -72 -34 -81 -15 -6 -30 -16 -34 -22 -4 -7 -8
-64 -8 -128 0 -128 1 -129 63 -129 44 0 73 19 32 21 -16 1 -40 0 -52 -1 -15
-1 -23 4 -23 14 0 12 11 16 48 17 l47 1 -40 8 c-22 4 -43 6 -47 3 -9 -5 -11
158 -2 181 3 9 15 16 25 16 14 0 19 -7 19 -29 0 -17 5 -33 10 -36 6 -4 10 6
10 24 0 31 16 49 30 35 5 -5 10 -76 12 -159 l3 -150 -67 -3 c-38 -2 -68 -7
-68 -13 0 -6 29 -9 73 -7 l72 3 3 173 2 172 -25 12 c-23 10 -25 16 -25 80 0
37 -4 68 -9 68 -4 0 -12 -32 -15 -70z"/>
<path d="M1070 3870 c0 -5 5 -10 12 -10 9 0 9 -3 0 -12 -15 -15 -16 -54 -2
-63 6 -3 10 -19 10 -34 0 -22 -7 -31 -30 -41 -16 -7 -45 -29 -63 -49 -31 -34
-34 -45 -41 -122 -4 -46 -4 -160 0 -254 6 -162 6 -172 -16 -223 -26 -61 -76
-108 -123 -117 -19 -4 -117 -5 -218 -3 -204 3 -227 9 -271 70 -34 48 -39 189
-9 250 22 45 62 77 123 97 44 14 98 72 98 104 -1 20 -3 19 -17 -8 -25 -47 -44
-64 -83 -75 -56 -15 -119 -66 -141 -113 -20 -46 -25 -144 -10 -211 10 -42 50
-89 94 -113 41 -21 446 -19 488 2 31 17 72 71 89 120 l10 30 161 -3 c134 -3
164 -1 185 13 l24 15 0 235 c0 141 -4 245 -11 262 -14 37 -54 79 -90 93 -24
10 -29 18 -29 46 0 19 5 34 10 34 13 0 13 47 0 55 -8 5 -7 11 1 21 10 12 -1
14 -70 14 -47 0 -81 -4 -81 -10z m125 -127 c-6 -37 -4 -39 37 -58 80 -38 83
-47 86 -297 2 -121 1 -231 -2 -244 l-7 -24 -162 2 -162 3 -3 242 -2 242 30 35
c17 19 47 40 65 46 32 11 35 15 35 51 l0 39 45 0 45 0 -5 -37z"/>
<path d="M1053 3631 c-18 -11 -35 -31 -38 -43 -3 -13 -4 -80 -3 -151 4 -179
22 -166 26 19 l3 145 36 16 c47 19 126 13 153 -12 19 -17 20 -31 20 -212 0
-165 2 -193 15 -193 13 0 15 28 15 190 l0 190 -29 32 c-26 29 -35 33 -97 36
-56 2 -75 -1 -101 -17z"/>
<path d="M1070 3440 c0 -87 4 -140 10 -140 6 0 10 53 10 140 0 87 -4 140 -10
140 -6 0 -10 -53 -10 -140z"/>
<path d="M1190 3440 c0 -87 4 -140 10 -140 6 0 10 53 10 140 0 87 -4 140 -10
140 -6 0 -10 -53 -10 -140z"/>
<path d="M1140 3425 c0 -77 4 -125 10 -125 6 0 10 48 10 125 0 77 -4 125 -10
125 -6 0 -10 -48 -10 -125z"/>
<path d="M1017 3253 c-14 -13 -7 -43 12 -53 25 -13 171 -13 171 0 0 6 -33 10
-80 10 -64 0 -80 3 -80 15 0 12 16 15 85 15 50 0 85 4 85 10 0 11 -182 14
-193 3z"/>
<path d="M1020 3160 c0 -6 40 -10 100 -10 60 0 100 4 100 10 0 6 -40 10 -100
10 -60 0 -100 -4 -100 -10z"/>
<path d="M1280 3149 c0 -5 5 -7 10 -4 6 3 10 8 10 11 0 2 -4 4 -10 4 -5 0 -10
-5 -10 -11z"/>
<path d="M3860 3861 c-327 -7 -328 -8 -388 -142 -33 -73 -76 -115 -127 -125
-19 -3 -35 -11 -35 -16 0 -12 54 -1 91 18 37 18 75 66 90 111 16 52 45 90 82
111 28 15 71 18 312 22 177 3 280 9 280 15 0 12 13 12 -305 6z"/>
<path d="M1587 3787 c-3 -8 -1 -20 4 -28 5 -8 9 -88 9 -179 0 -224 17 -195 22
38 3 163 1 182 -13 182 -9 0 -19 -6 -22 -13z"/>
<path d="M4360 3710 c0 -5 7 -10 15 -10 8 0 15 5 15 10 0 6 -7 10 -15 10 -8 0
-15 -4 -15 -10z"/>
<path d="M3677 3640 c-14 -11 -35 -41 -47 -66 -25 -50 -21 -73 4 -25 9 17 30
47 48 66 35 41 33 55 -5 25z"/>
<path d="M4137 3654 c-3 -4 7 -23 23 -43 105 -131 99 -313 -13 -438 -75 -82
-189 -122 -294 -103 -194 37 -315 233 -262 424 7 26 7 42 0 49 -16 16 -26 -38
-26 -148 0 -89 3 -106 28 -156 33 -69 99 -132 175 -167 48 -23 71 -27 142 -27
110 0 174 29 254 116 45 48 60 73 77 130 29 96 23 182 -19 264 -30 61 -73 110
-85 99z"/>
<path d="M1420 3630 c0 -19 3 -21 12 -12 9 9 9 15 0 24 -9 9 -12 7 -12 -12z"/>
<path d="M4520 3617 c0 -28 45 -73 83 -82 40 -10 33 9 -9 24 -25 9 -40 23 -50
47 -17 40 -24 43 -24 11z"/>
<path d="M4567 3634 c-4 -4 -2 -13 4 -21 14 -16 309 -19 309 -3 0 6 -56 10
-149 10 -97 0 -151 4 -153 11 -2 5 -7 7 -11 3z"/>
<path d="M324 3618 c-3 -4 11 -8 30 -8 20 0 36 2 36 4 0 8 -61 12 -66 4z"/>
<path d="M418 3613 c6 -2 18 -2 25 0 6 3 1 5 -13 5 -14 0 -19 -2 -12 -5z"/>
<path d="M3821 3598 c-54 -27 -96 -84 -112 -152 -21 -96 26 -196 115 -244 45
-24 141 -22 191 4 51 26 102 100 111 162 20 132 -78 252 -205 252 -37 0 -71
-7 -100 -22z m179 -23 c98 -50 131 -182 71 -278 -57 -89 -165 -114 -253 -58
-104 66 -118 211 -28 301 22 22 54 43 72 49 38 10 102 4 138 -14z"/>
<path d="M3910 3529 c-14 -6 -37 -22 -51 -35 -22 -21 -31 -24 -47 -15 -29 16
-30 15 -41 -26 -16 -57 -14 -63 19 -63 23 0 33 6 39 23 23 61 127 122 167 99
13 -7 5 -11 -32 -17 -40 -6 -56 -15 -86 -48 -21 -22 -38 -44 -38 -49 0 -4 52
-8 115 -8 l115 0 0 25 c0 38 -25 90 -51 109 -26 18 -71 20 -109 5z"/>
<path d="M3767 3354 c-9 -10 17 -55 52 -88 22 -22 43 -30 80 -34 48 -4 51 -3
61 23 19 50 50 85 75 85 13 0 27 5 30 10 7 11 -287 15 -298 4z m83 -62 c0 -13
-12 -22 -22 -16 -10 6 -1 24 13 24 5 0 9 -4 9 -8z"/>
<path d="M4660 3540 c0 -6 43 -10 110 -10 67 0 110 4 110 10 0 6 -43 10 -110
10 -67 0 -110 -4 -110 -10z"/>
<path d="M4895 3540 c-4 -6 7 -10 24 -10 17 0 31 5 31 10 0 6 -11 10 -24 10
-14 0 -28 -4 -31 -10z"/>
<path d="M158 3453 c-8 -19 4 -553 13 -548 5 4 9 107 9 241 0 195 3 239 15
258 14 22 14 25 0 40 -18 17 -32 21 -37 9z"/>
<path d="M4954 3435 c-15 -23 -16 -84 -10 -808 3 -430 5 -806 5 -836 0 -61
-18 -95 -60 -117 -16 -8 -29 -19 -29 -25 0 -16 56 18 84 51 26 31 26 32 26
210 0 165 1 178 18 174 16 -5 17 -20 12 -188 -5 -193 -6 -196 -59 -244 -22
-20 -23 -22 -4 -13 30 15 61 57 73 100 7 24 10 314 8 876 l-3 840 -22 3 c-14
2 -27 -5 -39 -23z"/>
<path d="M5064 3340 c0 -69 1 -97 3 -62 2 34 2 90 0 125 -2 34 -3 6 -3 -63z"/>
<path d="M1390 3440 c0 -6 27 -10 60 -10 33 0 60 4 60 10 0 6 -27 10 -60 10
-33 0 -60 -4 -60 -10z"/>
<path d="M1760 3436 c-19 -23 -8 -61 18 -64 44 -7 67 32 36 62 -19 20 -38 20
-54 2z"/>
<path d="M4455 3415 l-25 -24 0 -286 0 -285 -148 0 c-136 0 -150 2 -167 20
-23 25 -57 26 -78 2 -23 -26 -21 -58 5 -76 32 -23 54 -20 76 9 20 25 22 25
166 25 l146 0 0 -295 0 -296 25 -25 c24 -24 25 -31 25 -139 0 -65 4 -116 10
-120 6 -4 10 36 10 114 0 108 2 120 19 126 10 3 26 14 36 25 16 18 17 60 17
612 l-1 593 -26 23 c-34 29 -60 28 -90 -3z m30 -383 c-13 -14 -15 17 -8 164
l8 159 3 -159 c1 -87 0 -161 -3 -164z m65 -202 c0 -5 -23 -10 -51 -10 -31 0
-48 4 -44 10 3 6 26 10 51 10 24 0 44 -4 44 -10z m0 -45 c0 -11 -12 -15 -45
-15 -33 0 -45 4 -45 15 0 11 12 15 45 15 33 0 45 -4 45 -15z m0 -51 c0 -12
-10 -14 -47 -12 -66 4 -70 28 -4 28 39 0 51 -4 51 -16z m0 -49 c0 -11 -12 -15
-45 -15 -33 0 -45 4 -45 15 0 11 12 15 45 15 33 0 45 -4 45 -15z m0 -50 c-13
-15 -47 -20 -74 -9 -32 12 -15 24 35 24 45 0 50 -2 39 -15z m0 -305 c0 -5 -20
-10 -45 -10 -25 0 -45 5 -45 10 0 6 20 10 45 10 25 0 45 -4 45 -10z"/>
<path d="M362 3407 c-45 -17 -99 -62 -119 -100 -13 -25 -17 -60 -17 -162 0
-145 15 -193 74 -250 36 -34 40 -17 6 20 -50 53 -61 92 -64 220 -3 109 -1 124
20 165 18 36 34 51 78 72 30 15 75 31 100 36 l45 10 -45 0 c-25 0 -60 -5 -78
-11z"/>
<path d="M1591 3242 c-48 -24 -92 -82 -98 -129 -7 -54 24 -122 73 -159 32 -25
46 -29 100 -29 48 0 69 5 91 21 78 58 95 169 36 242 -36 45 -86 72 -133 72
-19 0 -50 -8 -69 -18z m147 -29 c92 -69 93 -190 3 -250 -92 -62 -221 12 -221
126 0 89 68 156 149 148 24 -3 55 -13 69 -24z"/>
<path d="M1626 3220 c-34 -11 -63 -36 -82 -72 -43 -83 26 -189 122 -188 74 1
124 52 124 128 0 57 -25 98 -75 122 -45 22 -47 22 -89 10z m94 -45 c-7 -9 -15
-13 -17 -11 -7 7 7 26 19 26 6 0 6 -6 -2 -15z m-59 -38 c-13 -13 -26 -3 -16
12 3 6 11 8 17 5 6 -4 6 -10 -1 -17z m51 -35 l-51 -48 -46 42 c-25 23 -45 45
-45 49 0 8 21 -7 62 -43 l27 -25 47 42 c65 57 70 42 6 -17z m-2 -92 c0 -5 -21
-9 -47 -8 l-48 1 45 7 c25 4 46 8 48 8 1 1 2 -2 2 -8z"/>
<path d="M743 3206 c-55 -47 -26 -145 48 -161 32 -7 83 16 99 44 18 34 11 78
-16 110 -33 40 -89 43 -131 7z"/>
<path d="M5065 2705 c0 -247 1 -347 2 -222 2 126 2 328 0 450 -1 122 -2 20 -2
-228z"/>
<path d="M1381 3020 c-1 -55 27 -119 64 -148 20 -16 41 -22 80 -22 37 0 60 -6
76 -19 21 -17 23 -25 20 -101 -1 -46 -4 -87 -7 -92 -3 -4 -113 -8 -245 -8
-158 0 -239 -4 -239 -10 0 -13 476 -10 501 3 10 5 27 -2 51 -20 96 -74 89
-149 -19 -220 -35 -23 -60 -48 -64 -63 -4 -14 -7 -106 -8 -206 l-1 -181 -30
-41 c-36 -50 -63 -68 -115 -78 -42 -8 -95 -51 -95 -78 0 -14 -23 -16 -180 -16
-179 0 -181 0 -205 -25 -42 -41 -29 -100 34 -159 29 -28 31 -35 31 -97 0 -38
5 -91 11 -118 15 -71 78 -165 136 -201 52 -33 109 -48 124 -33 7 7 -4 13 -34
17 -116 18 -216 159 -217 306 l0 66 73 -3 c73 -2 63 5 -33 22 -46 9 -130 101
-130 144 0 55 18 60 220 63 l184 3 8 33 c9 34 24 44 95 62 52 13 98 50 123
101 18 34 20 59 20 221 0 205 0 206 72 252 58 37 81 70 82 120 1 53 -23 90
-79 124 l-44 27 -1 86 c0 78 -2 88 -25 109 -17 16 -40 24 -77 27 -29 2 -62 9
-74 14 -29 15 -56 64 -70 129 l-12 55 -1 -45z"/>
<path d="M4797 3003 c-10 -9 -8 -41 2 -47 18 -11 41 6 41 30 0 17 -6 24 -18
24 -10 0 -22 -3 -25 -7z"/>
<path d="M4780 2921 c0 -11 6 -22 13 -24 10 -4 10 -6 0 -6 -15 -1 -18 -41 -3
-41 7 0 10 -148 10 -425 0 -277 3 -425 10 -425 7 0 10 147 10 420 0 365 2 421
15 426 10 4 15 20 15 50 0 44 0 44 -35 44 -28 0 -35 -4 -35 -19z"/>
<path d="M965 2825 c-20 -19 -25 -34 -25 -75 0 -32 4 -49 10 -45 6 3 10 25 10
49 0 31 6 48 21 62 19 17 37 19 185 17 92 0 164 3 164 8 0 5 -76 9 -170 9
-168 0 -171 0 -195 -25z"/>
<path d="M1001 2791 c-29 -29 -36 -77 -16 -107 22 -33 28 -26 12 15 -10 26 -9
36 3 58 21 37 69 46 208 40 65 -3 112 -2 112 4 0 5 -66 9 -150 9 -134 0 -152
-2 -169 -19z"/>
<path d="M280 2790 c-8 -5 -22 -11 -31 -13 -12 -4 -16 -19 -17 -66 -1 -37 3
-61 10 -61 7 0 6 -5 -1 -14 -7 -8 -11 -30 -9 -48 3 -36 26 -46 74 -34 19 5 24
13 24 41 0 18 -5 37 -10 40 -7 5 -8 11 -1 19 5 6 10 35 9 63 0 56 -21 87 -48
73z m13 -97 c-7 -2 -19 -2 -25 0 -7 3 -2 5 12 5 14 0 19 -2 13 -5z"/>
<path d="M600 2765 c0 -28 -4 -35 -20 -35 -16 0 -20 -7 -20 -35 l0 -35 50 0
50 0 0 34 c0 25 -5 35 -20 39 -15 4 -20 14 -20 36 0 17 -4 31 -10 31 -5 0 -10
-16 -10 -35z"/>
<path d="M830 2733 c-50 -18 -68 -84 -32 -116 42 -38 122 -7 122 47 0 43 -51
83 -90 69z"/>
<path d="M1100 2699 c0 -5 92 -9 225 -9 133 0 225 4 225 9 0 6 -92 10 -225 10
-133 0 -225 -4 -225 -10z"/>
<path d="M4170 2672 c1 -4 15 -16 32 -27 18 -11 41 -36 53 -55 19 -34 20 -49
19 -417 -2 -353 -3 -385 -20 -414 -31 -53 -67 -73 -140 -77 -60 -4 -66 -3 -71
17 -5 19 -12 21 -74 21 -37 0 -71 -4 -74 -10 -4 -6 18 -10 59 -10 54 0 70 -4
87 -21 19 -19 30 -21 80 -16 72 6 117 33 147 85 22 39 22 46 22 426 0 251 4
386 10 386 6 0 10 4 10 10 0 5 -6 7 -14 4 -8 -3 -17 3 -21 15 -8 25 -61 78
-86 84 -10 3 -19 2 -19 -1z"/>
<path d="M1160 2660 c0 -6 75 -10 205 -10 130 0 205 4 205 10 0 6 -75 10 -205
10 -130 0 -205 -4 -205 -10z"/>
<path d="M1800 2275 c0 -250 4 -385 10 -385 6 0 10 135 10 385 0 250 -4 385
-10 385 -6 0 -10 -135 -10 -385z"/>
<path d="M568 2595 l4 -45 44 0 44 0 0 45 0 45 -48 0 -47 0 3 -45z"/>
<path d="M4010 2581 c0 -11 4 -21 9 -21 18 0 21 18 6 30 -13 10 -15 9 -15 -9z"/>
<path d="M233 2288 c6 -220 9 -254 23 -265 11 -8 23 -9 34 -3 20 11 30 138 30
378 l0 142 -47 0 -46 0 6 -252z m57 -173 c0 -36 -4 -65 -9 -65 -14 0 -21 27
-21 81 0 37 4 49 15 49 12 0 15 -14 15 -65z"/>
<path d="M150 2208 c0 -307 1 -324 21 -366 53 -108 225 -138 280 -48 18 29 19
53 19 369 0 218 -4 337 -10 337 -6 0 -10 -119 -10 -336 0 -211 -4 -342 -10
-355 -30 -55 -140 -64 -203 -16 -66 50 -67 59 -67 416 0 207 -4 321 -10 321
-6 0 -10 -114 -10 -322z"/>
<path d="M1552 2507 c-41 -44 -23 -100 35 -110 45 -9 76 19 75 64 -2 63 -68
91 -110 46z m48 -41 c0 -3 -4 -8 -10 -11 -5 -3 -10 -1 -10 4 0 6 5 11 10 11 6
0 10 -2 10 -4z"/>
<path d="M570 2279 l0 -240 43 3 42 3 3 238 2 237 -45 0 -45 0 0 -241z"/>
<path d="M1097 2500 c-184 -31 -301 -213 -253 -398 31 -121 112 -205 230 -237
149 -40 300 34 373 183 39 80 39 185 -1 265 -64 132 -209 210 -349 187z m168
-120 c34 -18 60 -43 80 -75 27 -43 30 -57 30 -125 0 -68 -3 -82 -30 -126 -44
-71 -109 -108 -188 -108 -133 1 -229 97 -231 229 -2 109 68 203 171 231 60 16
105 9 168 -26z"/>
<path d="M1059 2367 c-68 -36 -103 -93 -107 -176 -3 -54 0 -76 17 -108 40 -79
113 -119 207 -111 68 6 122 43 158 107 97 178 -97 381 -275 288z m91 -17 c0
-5 -7 -10 -15 -10 -8 0 -15 -6 -15 -13 0 -10 13 -14 44 -13 30 1 50 -5 64 -17
12 -11 26 -16 31 -12 6 3 11 -1 11 -10 0 -19 -34 -12 -61 11 -19 17 -71 18
-87 2 -9 -9 -12 -7 -12 9 0 16 -7 23 -27 26 l-28 4 33 8 c17 4 32 11 32 16 0
5 7 9 15 9 8 0 15 -4 15 -10z m-88 -47 c23 -27 30 -43 19 -43 -5 0 -19 14 -31
30 -23 32 -13 42 12 13z m126 -115 c2 -19 -3 -30 -17 -38 -28 -15 -61 3 -61
34 0 31 9 37 45 34 24 -2 31 -8 33 -30z m-143 2 c-3 -5 -15 -10 -26 -10 -10 0
-19 5 -19 10 0 6 12 10 26 10 14 0 23 -4 19 -10z m265 0 c0 -5 -13 -10 -30
-10 -16 0 -30 5 -30 10 0 6 14 10 30 10 17 0 30 -4 30 -10z m-240 -79 c0 -14
-18 -23 -30 -16 -6 4 -8 11 -5 16 8 12 35 12 35 0z m188 -3 c-6 -18 -28 -21
-28 -4 0 9 7 16 16 16 9 0 14 -5 12 -12z m-142 -55 c-11 -11 -19 6 -11 24 8
17 8 17 12 0 3 -10 2 -21 -1 -24z m92 8 c3 -8 -1 -12 -9 -9 -7 2 -15 10 -17
17 -3 8 1 12 9 9 7 -2 15 -10 17 -17z"/>
<path d="M1515 2350 c-9 -15 4 -30 26 -30 12 0 19 7 19 20 0 21 -33 29 -45 10z"/>
<path d="M4164 2289 c-19 -22 -19 -22 4 -8 12 8 22 17 22 21 0 12 -6 9 -26
-13z"/>
<path d="M570 1979 l0 -40 43 3 c41 3 42 4 45 41 l3 37 -45 0 -46 0 0 -41z"/>
<path d="M3800 1941 c0 -14 58 -60 99 -78 50 -22 157 -21 201 1 48 25 100 65
100 77 0 6 -15 -1 -33 -15 -109 -83 -222 -87 -322 -11 -25 19 -45 31 -45 26z"/>
<path d="M4800 1849 c0 -57 4 -88 10 -84 6 3 10 44 10 91 0 49 -4 84 -10 84
-6 0 -10 -37 -10 -91z"/>
<path d="M575 1903 c4 -10 14 -37 22 -61 8 -24 17 -42 18 -40 2 2 12 29 23 61
l19 57 -45 0 c-38 0 -43 -2 -37 -17z"/>
<path d="M4481 1833 c1 -80 17 -98 18 -20 1 38 -3 67 -9 67 -5 0 -10 -21 -9
-47z"/>
<path d="M3700 1793 c0 -26 42 -79 70 -86 30 -8 24 6 -10 25 -17 10 -37 32
-45 50 -11 27 -14 29 -15 11z"/>
<path d="M4681 1719 c-1 -36 4 -50 23 -68 30 -29 90 -45 114 -32 14 9 13 10
-11 11 -15 0 -43 6 -62 14 -27 12 -36 23 -45 58 -17 65 -18 67 -19 17z"/>
<path d="M3820 1710 c0 -5 7 -10 15 -10 8 0 15 5 15 10 0 6 -7 10 -15 10 -8 0
-15 -4 -15 -10z"/>
<path d="M4730 1712 c0 -4 10 -18 23 -30 24 -22 77 -30 77 -12 0 6 -11 10 -24
10 -13 0 -35 9 -50 21 -14 11 -26 16 -26 11z"/>
<path d="M4340 1680 c0 -11 -19 -40 -43 -65 l-44 -45 -256 0 c-165 0 -257 -4
-257 -10 0 -6 87 -10 242 -10 220 0 245 2 282 20 55 26 123 130 86 130 -5 0
-10 -9 -10 -20z"/>
<path d="M4488 1573 c-2 -60 -1 -119 3 -133 4 -14 8 34 8 108 1 72 -1 132 -3
132 -2 0 -6 -48 -8 -107z"/>
<path d="M1700 1585 c-71 -54 -93 -58 -335 -59 -137 -1 -221 -5 -223 -11 -1
-5 13 -11 33 -13 21 -2 35 -9 35 -17 0 -21 25 -25 168 -25 140 0 169 6 159 33
-4 11 3 15 34 15 44 1 129 45 168 86 34 36 15 31 -39 -9z"/>
<path d="M277 1576 c-71 -26 -107 -78 -107 -156 0 -104 96 -209 193 -210 25 0
27 -3 27 -45 0 -80 56 -157 140 -193 79 -34 202 -8 260 53 30 31 15 32 -30 2
-161 -108 -350 -21 -350 160 0 91 39 138 128 158 18 4 36 13 39 21 19 49 -97
193 -172 213 -52 14 -81 13 -128 -3z m152 -31 c52 -27 107 -93 125 -151 6 -19
1 -23 -38 -33 -56 -14 -101 -52 -116 -96 -13 -38 -17 -40 -75 -24 -99 27 -161
149 -122 242 17 39 35 55 84 73 42 16 100 11 142 -11z"/>
<path d="M630 1541 c0 -5 17 -12 37 -16 122 -23 202 -123 203 -253 0 -67 -18
-123 -52 -159 l-21 -23 23 -25 c19 -20 23 -35 21 -69 -3 -54 19 -100 59 -121
48 -25 88 -17 137 27 l21 20 85 -46 c91 -50 120 -55 172 -30 49 23 67 57 73
138 2 39 9 77 15 84 6 8 36 26 67 42 31 16 71 45 88 64 57 66 66 91 69 211 1
71 -1 101 -6 85 -5 -14 -9 -54 -10 -89 -1 -35 -6 -81 -13 -103 -16 -55 -76
-119 -147 -157 -33 -17 -63 -37 -67 -43 -4 -6 -10 -47 -14 -92 -7 -73 -10 -82
-39 -108 -48 -43 -99 -39 -186 15 -70 43 -70 44 -75 95 -10 100 -97 146 -178
94 -20 -13 -25 -13 -37 -1 -13 12 -11 21 10 63 20 40 25 64 25 126 0 91 -28
158 -90 214 -47 42 -170 84 -170 57z m392 -488 c51 -49 30 -141 -37 -163 -98
-32 -169 87 -96 161 40 39 93 40 133 2z"/>
<path d="M916 1024 c-33 -33 -13 -88 36 -99 21 -5 33 -1 52 19 31 30 32 36 5
70 -24 30 -69 35 -93 10z m72 -10 c29 -20 28 -52 -2 -65 -47 -22 -90 33 -54
69 16 16 29 15 56 -4z"/>
<path d="M3837 1493 c-9 -2 -24 -17 -32 -33 -39 -75 62 -140 115 -73 45 58 -8
126 -83 106z m43 -63 c0 -11 -7 -20 -15 -20 -8 0 -15 9 -15 20 0 11 7 20 15
20 8 0 15 -9 15 -20z"/>
<path d="M4030 1480 c-41 -41 -7 -120 52 -120 24 0 68 44 68 68 0 59 -79 93
-120 52z m63 -35 c8 -18 -11 -31 -25 -17 -11 11 -3 32 12 32 4 0 10 -7 13 -15z"/>
<path d="M3400 1435 l0 -45 56 0 c48 0 59 -4 85 -29 39 -39 41 -100 4 -136
-23 -24 -29 -25 -159 -25 -74 0 -142 -3 -150 -6 -26 -10 -38 -41 -26 -64 10
-19 21 -20 171 -20 170 0 192 5 236 52 81 87 64 226 -35 289 -39 25 -56 29
-114 29 l-68 0 0 -45z"/>
<path d="M4200 1420 c0 -5 14 -10 30 -10 17 0 30 5 30 10 0 6 -13 10 -30 10
-16 0 -30 -4 -30 -10z"/>
<path d="M1150 1361 c0 -38 33 -102 68 -128 32 -25 33 -12 2 23 -36 42 -50 73
-50 115 0 16 -4 29 -10 29 -5 0 -10 -17 -10 -39z"/>
<path d="M4474 1390 c-63 -25 -91 -108 -58 -171 15 -30 15 -32 -42 -133 l-57
-103 -32 10 c-43 13 -77 3 -120 -34 -92 -81 -48 -231 73 -246 111 -13 192 125
132 225 l-20 33 55 98 56 98 43 -4 c56 -7 98 15 120 62 46 96 -53 204 -150
165z m75 -45 c38 -19 53 -62 36 -102 -21 -50 -80 -59 -120 -18 -39 38 -29 106
18 125 31 12 34 12 66 -5z m-274 -495 c0 -29 -32 -41 -41 -16 -9 24 4 48 23
44 12 -2 18 -12 18 -28z"/>
<path d="M565 1297 c-53 -30 -85 -79 -85 -131 0 -41 31 -106 50 -106 14 0 13
5 -10 42 -39 65 -14 140 59 178 60 30 104 27 147 -13 28 -25 36 -41 37 -69 3
-96 -117 -141 -147 -56 -21 59 41 112 84 73 25 -23 25 -31 0 -52 -24 -20 -26
-33 -6 -33 18 0 46 38 46 62 0 28 -37 58 -70 58 -45 0 -80 -39 -80 -89 0 -32
6 -44 31 -65 17 -14 40 -26 52 -26 35 0 86 37 104 75 22 46 6 102 -42 144 -45
39 -109 42 -170 8z"/>
<path d="M1975 1240 c3 -5 8 -10 11 -10 2 0 4 5 4 10 0 6 -5 10 -11 10 -5 0
-7 -4 -4 -10z"/>
<path d="M1675 1140 c-4 -6 18 -10 59 -10 37 0 66 4 66 10 0 6 -26 10 -59 10
-33 0 -63 -4 -66 -10z"/>
<path d="M1820 1140 c0 -5 16 -10 35 -10 19 0 35 5 35 10 0 6 -16 10 -35 10
-19 0 -35 -4 -35 -10z"/>
<path d="M1910 1140 c0 -5 7 -10 15 -10 8 0 15 5 15 10 0 6 -7 10 -15 10 -8 0
-15 -4 -15 -10z"/>
<path d="M1960 1140 c0 -5 9 -10 20 -10 11 0 20 5 20 10 0 6 -9 10 -20 10 -11
0 -20 -4 -20 -10z"/>
<path d="M2020 1140 c0 -6 57 -10 150 -10 93 0 150 4 150 10 0 6 -57 10 -150
10 -93 0 -150 -4 -150 -10z"/>
<path d="M2330 1140 c0 -5 11 -10 25 -10 14 0 25 5 25 10 0 6 -11 10 -25 10
-14 0 -25 -4 -25 -10z"/>
<path d="M3135 1140 c-4 -6 -88 -10 -219 -10 -151 0 -215 -3 -224 -12 -7 -7
-12 -40 -12 -80 l0 -68 -70 0 -70 0 0 -30 0 -30 254 0 c245 0 255 1 261 20 3
11 3 24 0 30 -4 6 -53 10 -116 10 l-109 0 0 64 c0 78 -6 76 183 76 130 0 137
1 137 20 0 22 -5 26 -15 10z m-337 -102 c-3 -61 -4 -63 -31 -66 -39 -5 -57 14
-57 58 0 60 7 70 52 70 l39 0 -3 -62z"/>
<path d="M281 1070 c1 -38 6 -70 10 -70 5 0 9 32 9 70 0 42 -4 70 -10 70 -7 0
-10 -27 -9 -70z"/>
<path d="M4247 1083 c-12 -12 -7 -22 8 -17 8 4 15 10 15 15 0 11 -14 12 -23 2z"/>
<path d="M4163 1040 c-29 -17 -57 -39 -63 -50 -14 -26 2 -26 26 1 10 12 36 30
56 40 35 18 58 39 41 39 -4 0 -31 -14 -60 -30z"/>
<path d="M280 955 c0 -61 56 -116 117 -114 25 1 24 2 -9 11 -46 12 -88 59 -88
99 0 16 -4 29 -10 29 -5 0 -10 -11 -10 -25z"/>
<path d="M475 860 c-4 -6 35 -10 109 -10 71 0 116 4 116 10 0 6 -43 10 -109
10 -63 0 -112 -4 -116 -10z"/>
<path d="M725 860 c-4 -6 10 -10 35 -10 25 0 39 4 35 10 -3 6 -19 10 -35 10
-16 0 -32 -4 -35 -10z"/>
<path d="M880 735 c-17 -20 -5 -45 20 -45 11 0 23 7 26 15 6 15 -11 45 -26 45
-4 0 -13 -7 -20 -15z"/>
</g>
</svg>